<?xml version="1.0" encoding="UTF-8"?>
<svg xmlns="http://www.w3.org/2000/svg" xmlns:xlink="http://www.w3.org/1999/xlink" width="40px" height="px" viewBox="0 0 40 40" version="1.1">
<defs>
<clipPath id="clip1">
  <path d="M 6.078125 2.550781 L 33.921875 2.550781 L 33.921875 35.414062 L 6.078125 35.414062 Z M 6.078125 2.550781 "/>
</clipPath>
</defs>
<g id="surface1">
<g clip-path="url(#clip1)" clip-rule="nonzero">
<path style=" stroke:none;fill-rule:nonzero;fill:rgb(0%,0%,0%);fill-opacity:1;" d="M 31.199219 13.410156 C 31.285156 13.347656 31.347656 13.269531 31.390625 13.171875 C 31.464844 12.996094 31.523438 12.816406 31.566406 12.632812 C 31.613281 12.449219 31.644531 12.261719 31.660156 12.070312 C 31.671875 11.882812 31.675781 11.695312 31.660156 11.503906 C 31.644531 11.316406 31.617188 11.128906 31.570312 10.945312 C 31.527344 10.761719 31.46875 10.582031 31.394531 10.40625 C 31.324219 10.230469 31.234375 10.0625 31.136719 9.902344 C 31.035156 9.738281 30.925781 9.585938 30.800781 9.441406 C 30.675781 9.296875 30.542969 9.164062 30.398438 9.042969 C 30.246094 8.925781 30.085938 8.820312 29.914062 8.730469 C 29.746094 8.636719 29.570312 8.558594 29.386719 8.496094 C 29.203125 8.433594 29.019531 8.386719 28.828125 8.351562 C 28.640625 8.320312 28.449219 8.300781 28.253906 8.296875 C 28.0625 8.296875 27.871094 8.308594 27.679688 8.335938 C 27.488281 8.367188 27.300781 8.410156 27.117188 8.46875 C 26.933594 8.527344 26.757812 8.601562 26.585938 8.6875 C 26.414062 8.773438 26.25 8.875 26.09375 8.988281 C 26.058594 9.015625 26.03125 9.042969 26.003906 9.074219 C 24.621094 8.40625 23.167969 7.980469 21.644531 7.800781 L 21.644531 5.691406 L 23.285156 5.691406 C 23.328125 5.691406 23.371094 5.6875 23.414062 5.675781 C 23.457031 5.667969 23.496094 5.652344 23.535156 5.632812 C 23.574219 5.613281 23.613281 5.589844 23.644531 5.5625 C 23.679688 5.535156 23.707031 5.503906 23.734375 5.46875 C 23.761719 5.433594 23.78125 5.398438 23.800781 5.359375 C 23.816406 5.316406 23.828125 5.277344 23.839844 5.234375 C 23.847656 5.191406 23.847656 5.148438 23.847656 5.105469 C 23.84375 5.0625 23.835938 5.019531 23.824219 4.976562 C 23.847656 4.917969 23.859375 4.851562 23.859375 4.785156 L 23.859375 3.125 C 23.859375 3.085938 23.855469 3.050781 23.847656 3.011719 C 23.839844 2.976562 23.832031 2.941406 23.816406 2.90625 C 23.800781 2.871094 23.785156 2.839844 23.761719 2.808594 C 23.742188 2.777344 23.71875 2.746094 23.691406 2.71875 C 23.664062 2.695312 23.636719 2.667969 23.605469 2.648438 C 23.574219 2.628906 23.539062 2.609375 23.503906 2.59375 C 23.472656 2.582031 23.433594 2.570312 23.398438 2.5625 C 23.359375 2.554688 23.324219 2.550781 23.285156 2.550781 C 23.214844 2.554688 23.144531 2.570312 23.078125 2.597656 C 23.003906 2.566406 22.925781 2.550781 22.84375 2.550781 L 16.96875 2.550781 C 16.878906 2.546875 16.789062 2.566406 16.707031 2.609375 C 16.625 2.652344 16.558594 2.714844 16.511719 2.792969 C 16.445312 2.804688 16.386719 2.828125 16.332031 2.863281 C 16.277344 2.898438 16.230469 2.941406 16.191406 2.992188 C 16.148438 3.042969 16.117188 3.097656 16.097656 3.15625 C 16.074219 3.21875 16.0625 3.28125 16.0625 3.347656 L 16.0625 5.007812 C 16.0625 5.054688 16.070312 5.101562 16.085938 5.152344 C 16.085938 5.1875 16.089844 5.222656 16.09375 5.257812 C 16.101562 5.292969 16.113281 5.328125 16.125 5.359375 C 16.140625 5.394531 16.15625 5.425781 16.175781 5.453125 C 16.195312 5.484375 16.21875 5.511719 16.246094 5.539062 C 16.269531 5.5625 16.296875 5.585938 16.328125 5.605469 C 16.359375 5.625 16.390625 5.640625 16.425781 5.652344 C 16.457031 5.667969 16.492188 5.675781 16.527344 5.683594 C 16.5625 5.691406 16.597656 5.691406 16.636719 5.691406 L 18.277344 5.691406 L 18.277344 7.8125 C 16.734375 8.003906 15.265625 8.445312 13.875 9.136719 C 13.835938 9.078125 13.789062 9.03125 13.734375 8.988281 C 13.578125 8.875 13.414062 8.773438 13.242188 8.6875 C 13.070312 8.597656 12.894531 8.527344 12.710938 8.46875 C 12.527344 8.410156 12.339844 8.367188 12.148438 8.335938 C 11.957031 8.308594 11.765625 8.296875 11.574219 8.296875 C 11.378906 8.300781 11.1875 8.316406 11 8.351562 C 10.808594 8.386719 10.625 8.433594 10.441406 8.496094 C 10.257812 8.558594 10.082031 8.636719 9.914062 8.730469 C 9.742188 8.820312 9.582031 8.925781 9.429688 9.042969 C 9.285156 9.164062 9.152344 9.296875 9.027344 9.441406 C 8.902344 9.585938 8.792969 9.738281 8.691406 9.902344 C 8.589844 10.0625 8.503906 10.230469 8.433594 10.40625 C 8.359375 10.582031 8.300781 10.761719 8.257812 10.945312 C 8.210938 11.128906 8.183594 11.316406 8.167969 11.503906 C 8.152344 11.695312 8.152344 11.882812 8.167969 12.070312 C 8.183594 12.261719 8.214844 12.449219 8.261719 12.632812 C 8.304688 12.816406 8.363281 12.996094 8.4375 13.171875 C 8.464844 13.242188 8.507812 13.308594 8.566406 13.359375 C 8.621094 13.414062 8.6875 13.453125 8.761719 13.476562 C 8.601562 13.699219 8.453125 13.921875 8.308594 14.152344 C 8.164062 14.382812 8.023438 14.613281 7.894531 14.851562 C 7.761719 15.089844 7.640625 15.328125 7.523438 15.574219 C 7.40625 15.820312 7.296875 16.066406 7.191406 16.316406 C 7.089844 16.570312 6.996094 16.824219 6.910156 17.078125 C 6.820312 17.335938 6.742188 17.59375 6.667969 17.855469 C 6.597656 18.117188 6.535156 18.378906 6.476562 18.644531 C 6.421875 18.910156 6.371094 19.175781 6.332031 19.445312 C 6.289062 19.710938 6.257812 19.980469 6.230469 20.25 C 6.207031 20.519531 6.191406 20.792969 6.179688 21.0625 C 6.171875 21.332031 6.171875 21.605469 6.175781 21.875 C 6.183594 22.144531 6.199219 22.417969 6.222656 22.6875 C 6.246094 22.957031 6.273438 23.226562 6.3125 23.492188 C 6.351562 23.761719 6.398438 24.027344 6.453125 24.292969 C 6.507812 24.558594 6.570312 24.824219 6.640625 25.085938 C 6.707031 25.347656 6.785156 25.605469 6.871094 25.863281 C 6.957031 26.121094 7.050781 26.375 7.148438 26.628906 C 7.25 26.878906 7.355469 27.128906 7.472656 27.375 C 7.585938 27.621094 7.707031 27.863281 7.835938 28.101562 C 7.964844 28.339844 8.101562 28.574219 8.246094 28.804688 C 8.386719 29.035156 8.535156 29.257812 8.691406 29.480469 C 8.847656 29.703125 9.011719 29.917969 9.179688 30.132812 C 9.347656 30.34375 9.523438 30.550781 9.707031 30.753906 C 9.886719 30.953125 10.074219 31.152344 10.265625 31.339844 C 10.457031 31.53125 10.65625 31.71875 10.859375 31.898438 C 11.0625 32.074219 11.273438 32.25 11.484375 32.414062 C 11.699219 32.582031 11.917969 32.742188 12.140625 32.898438 C 12.363281 33.050781 12.589844 33.199219 12.824219 33.339844 C 13.054688 33.480469 13.292969 33.613281 13.53125 33.742188 C 13.769531 33.867188 14.015625 33.988281 14.261719 34.101562 C 14.507812 34.214844 14.757812 34.316406 15.011719 34.414062 C 15.261719 34.515625 15.519531 34.605469 15.777344 34.6875 C 16.035156 34.769531 16.296875 34.84375 16.558594 34.914062 C 16.820312 34.980469 17.085938 35.039062 17.351562 35.09375 C 17.617188 35.144531 17.886719 35.1875 18.152344 35.226562 C 18.421875 35.261719 18.691406 35.289062 18.964844 35.308594 C 19.234375 35.332031 19.503906 35.34375 19.777344 35.347656 C 20.046875 35.351562 20.316406 35.347656 20.589844 35.335938 C 20.859375 35.328125 21.128906 35.308594 21.402344 35.28125 C 21.671875 35.253906 21.9375 35.21875 22.207031 35.175781 C 22.476562 35.128906 22.742188 35.078125 23.007812 35.019531 C 23.269531 34.960938 23.535156 34.894531 23.796875 34.820312 C 24.054688 34.746094 24.3125 34.667969 24.570312 34.578125 C 24.828125 34.488281 25.078125 34.390625 25.328125 34.285156 C 25.582031 34.183594 25.828125 34.070312 26.070312 33.953125 C 26.316406 33.832031 26.554688 33.707031 26.792969 33.574219 C 27.027344 33.441406 27.261719 33.300781 27.488281 33.15625 C 27.71875 33.007812 27.941406 32.855469 28.160156 32.695312 C 28.378906 32.535156 28.59375 32.371094 28.804688 32.199219 C 29.011719 32.027344 29.214844 31.847656 29.414062 31.664062 C 29.613281 31.480469 29.808594 31.289062 29.996094 31.09375 C 30.183594 30.898438 30.363281 30.699219 30.542969 30.492188 C 30.71875 30.285156 30.886719 30.074219 31.050781 29.859375 C 31.214844 29.640625 31.371094 29.421875 31.519531 29.195312 C 31.671875 28.96875 31.816406 28.738281 31.953125 28.507812 C 32.089844 28.273438 32.21875 28.035156 32.34375 27.792969 C 32.464844 27.550781 32.582031 27.304688 32.691406 27.058594 C 32.796875 26.808594 32.898438 26.558594 32.992188 26.304688 C 33.085938 26.050781 33.171875 25.792969 33.25 25.535156 C 33.328125 25.273438 33.402344 25.011719 33.464844 24.75 C 33.527344 24.484375 33.582031 24.21875 33.628906 23.953125 C 33.679688 23.6875 33.71875 23.417969 33.75 23.148438 C 33.78125 22.878906 33.804688 22.609375 33.820312 22.339844 C 33.835938 22.070312 33.84375 21.800781 33.84375 21.527344 C 33.847656 20.804688 33.789062 20.082031 33.675781 19.367188 C 33.5625 18.652344 33.394531 17.949219 33.167969 17.257812 C 32.945312 16.570312 32.667969 15.902344 32.335938 15.257812 C 32.003906 14.609375 31.625 13.996094 31.199219 13.410156 Z M 29.679688 9.941406 C 29.765625 10.015625 29.847656 10.097656 29.925781 10.183594 C 30 10.269531 30.070312 10.363281 30.132812 10.460938 C 30.195312 10.554688 30.25 10.65625 30.296875 10.761719 C 30.347656 10.867188 30.386719 10.972656 30.421875 11.082031 C 30.453125 11.195312 30.476562 11.304688 30.496094 11.421875 C 30.511719 11.535156 30.519531 11.648438 30.519531 11.765625 C 30.523438 11.878906 30.515625 11.992188 30.5 12.109375 C 30.480469 12.222656 30.457031 12.335938 30.425781 12.445312 C 29.472656 11.355469 28.378906 10.441406 27.144531 9.691406 C 27.242188 9.640625 27.347656 9.597656 27.453125 9.5625 C 27.558594 9.527344 27.667969 9.5 27.777344 9.480469 C 27.886719 9.460938 28 9.449219 28.109375 9.441406 C 28.222656 9.4375 28.335938 9.441406 28.445312 9.453125 C 28.558594 9.464844 28.667969 9.480469 28.777344 9.507812 C 28.886719 9.535156 28.992188 9.566406 29.097656 9.609375 C 29.203125 9.652344 29.300781 9.699219 29.398438 9.753906 C 29.496094 9.808594 29.589844 9.871094 29.679688 9.941406 Z M 17.210938 4.542969 L 17.210938 3.695312 L 22.710938 3.695312 L 22.710938 4.542969 Z M 20.496094 5.691406 L 20.496094 7.710938 C 20.332031 7.707031 20.171875 7.699219 20.003906 7.699219 C 19.8125 7.699219 19.621094 7.707031 19.429688 7.714844 L 19.429688 5.691406 Z M 10.152344 9.941406 C 10.242188 9.871094 10.339844 9.804688 10.441406 9.75 C 10.542969 9.691406 10.648438 9.640625 10.757812 9.601562 C 10.867188 9.558594 10.980469 9.527344 11.09375 9.5 C 11.207031 9.472656 11.320312 9.457031 11.4375 9.449219 C 11.554688 9.441406 11.671875 9.441406 11.785156 9.449219 C 11.902344 9.457031 12.019531 9.472656 12.132812 9.496094 C 12.246094 9.523438 12.355469 9.554688 12.464844 9.597656 C 12.574219 9.636719 12.679688 9.6875 12.78125 9.742188 C 11.523438 10.515625 10.414062 11.46875 9.457031 12.59375 C 9.414062 12.480469 9.382812 12.363281 9.355469 12.246094 C 9.332031 12.125 9.316406 12.003906 9.3125 11.882812 C 9.308594 11.761719 9.3125 11.640625 9.324219 11.519531 C 9.335938 11.398438 9.359375 11.277344 9.390625 11.160156 C 9.421875 11.042969 9.460938 10.925781 9.507812 10.816406 C 9.554688 10.703125 9.613281 10.59375 9.675781 10.492188 C 9.742188 10.386719 9.8125 10.289062 9.894531 10.199219 C 9.972656 10.105469 10.058594 10.019531 10.152344 9.941406 Z M 20.003906 34.203125 C 19.796875 34.203125 19.589844 34.199219 19.382812 34.191406 C 19.175781 34.179688 18.96875 34.164062 18.761719 34.144531 C 18.554688 34.125 18.347656 34.097656 18.144531 34.066406 C 17.9375 34.035156 17.734375 34 17.53125 33.960938 C 17.324219 33.921875 17.121094 33.875 16.921875 33.824219 C 16.71875 33.773438 16.519531 33.71875 16.320312 33.660156 C 16.121094 33.597656 15.925781 33.535156 15.730469 33.464844 C 15.535156 33.394531 15.339844 33.320312 15.148438 33.238281 C 14.957031 33.160156 14.765625 33.078125 14.578125 32.988281 C 14.390625 32.898438 14.207031 32.804688 14.023438 32.707031 C 13.839844 32.609375 13.660156 32.507812 13.480469 32.402344 C 13.300781 32.296875 13.125 32.183594 12.953125 32.070312 C 12.78125 31.953125 12.609375 31.832031 12.445312 31.710938 C 12.277344 31.585938 12.113281 31.460938 11.953125 31.328125 C 11.792969 31.195312 11.636719 31.058594 11.480469 30.921875 C 11.328125 30.78125 11.175781 30.640625 11.03125 30.492188 C 10.882812 30.34375 10.742188 30.195312 10.601562 30.042969 C 10.460938 29.886719 10.324219 29.730469 10.195312 29.570312 C 10.0625 29.410156 9.933594 29.246094 9.808594 29.078125 C 9.6875 28.914062 9.566406 28.742188 9.453125 28.570312 C 9.335938 28.398438 9.226562 28.222656 9.117188 28.046875 C 9.011719 27.867188 8.910156 27.6875 8.8125 27.503906 C 8.714844 27.320312 8.621094 27.136719 8.53125 26.949219 C 8.441406 26.761719 8.359375 26.570312 8.277344 26.378906 C 8.199219 26.1875 8.125 25.992188 8.054688 25.796875 C 7.984375 25.601562 7.917969 25.40625 7.859375 25.207031 C 7.796875 25.007812 7.742188 24.808594 7.691406 24.609375 C 7.640625 24.40625 7.597656 24.203125 7.554688 24 C 7.515625 23.796875 7.480469 23.59375 7.449219 23.386719 C 7.417969 23.183594 7.394531 22.976562 7.375 22.769531 C 7.351562 22.5625 7.339844 22.355469 7.328125 22.148438 C 7.316406 21.941406 7.3125 21.734375 7.3125 21.527344 C 7.3125 21.320312 7.316406 21.113281 7.328125 20.90625 C 7.339844 20.695312 7.351562 20.492188 7.375 20.285156 C 7.394531 20.078125 7.417969 19.871094 7.449219 19.667969 C 7.480469 19.460938 7.515625 19.257812 7.554688 19.054688 C 7.597656 18.847656 7.640625 18.648438 7.691406 18.445312 C 7.742188 18.246094 7.796875 18.042969 7.859375 17.847656 C 7.917969 17.648438 7.984375 17.449219 8.054688 17.253906 C 8.125 17.058594 8.199219 16.867188 8.277344 16.675781 C 8.359375 16.484375 8.441406 16.292969 8.53125 16.105469 C 8.621094 15.917969 8.714844 15.734375 8.8125 15.550781 C 8.910156 15.367188 9.011719 15.1875 9.117188 15.007812 C 9.222656 14.828125 9.335938 14.65625 9.453125 14.480469 C 9.566406 14.308594 9.6875 14.140625 9.808594 13.972656 C 9.933594 13.808594 10.0625 13.644531 10.191406 13.484375 C 10.324219 13.324219 10.460938 13.164062 10.601562 13.011719 C 10.738281 12.859375 10.882812 12.707031 11.03125 12.5625 C 11.175781 12.414062 11.328125 12.269531 11.480469 12.132812 C 11.636719 11.992188 11.792969 11.855469 11.953125 11.726562 C 12.113281 11.59375 12.277344 11.464844 12.445312 11.34375 C 12.609375 11.21875 12.78125 11.097656 12.953125 10.984375 C 13.125 10.867188 13.300781 10.757812 13.480469 10.652344 C 13.65625 10.542969 13.839844 10.441406 14.023438 10.34375 C 14.203125 10.246094 14.390625 10.152344 14.578125 10.066406 C 14.765625 9.976562 14.957031 9.890625 15.148438 9.8125 C 15.339844 9.734375 15.535156 9.660156 15.730469 9.589844 C 15.925781 9.519531 16.121094 9.453125 16.320312 9.394531 C 16.519531 9.332031 16.71875 9.277344 16.921875 9.226562 C 17.121094 9.175781 17.324219 9.132812 17.527344 9.089844 C 17.734375 9.050781 17.9375 9.015625 18.140625 8.984375 C 18.347656 8.953125 18.554688 8.929688 18.761719 8.910156 C 18.96875 8.886719 19.175781 8.871094 19.382812 8.863281 C 19.589844 8.851562 19.796875 8.847656 20.003906 8.847656 C 20.210938 8.847656 20.421875 8.851562 20.628906 8.863281 C 20.835938 8.871094 21.042969 8.886719 21.25 8.910156 C 21.457031 8.929688 21.660156 8.953125 21.867188 8.984375 C 22.074219 9.015625 22.277344 9.050781 22.480469 9.089844 C 22.683594 9.132812 22.886719 9.175781 23.089844 9.226562 C 23.289062 9.277344 23.492188 9.332031 23.6875 9.394531 C 23.886719 9.453125 24.085938 9.519531 24.28125 9.589844 C 24.476562 9.660156 24.671875 9.734375 24.863281 9.8125 C 25.054688 9.890625 25.242188 9.976562 25.429688 10.066406 C 25.621094 10.152344 25.804688 10.246094 25.988281 10.34375 C 26.171875 10.441406 26.351562 10.546875 26.53125 10.652344 C 26.707031 10.757812 26.882812 10.871094 27.054688 10.984375 C 27.230469 11.101562 27.398438 11.21875 27.566406 11.34375 C 27.734375 11.46875 27.894531 11.59375 28.058594 11.726562 C 28.21875 11.859375 28.375 11.992188 28.527344 12.132812 C 28.683594 12.273438 28.832031 12.414062 28.980469 12.5625 C 29.125 12.707031 29.269531 12.859375 29.410156 13.011719 C 29.546875 13.167969 29.683594 13.324219 29.816406 13.484375 C 29.949219 13.644531 30.074219 13.808594 30.199219 13.976562 C 30.324219 14.140625 30.441406 14.3125 30.558594 14.484375 C 30.671875 14.65625 30.785156 14.832031 30.890625 15.007812 C 30.996094 15.1875 31.101562 15.367188 31.199219 15.550781 C 31.296875 15.734375 31.390625 15.917969 31.476562 16.105469 C 31.566406 16.292969 31.652344 16.484375 31.730469 16.675781 C 31.808594 16.867188 31.882812 17.0625 31.953125 17.257812 C 32.023438 17.453125 32.089844 17.648438 32.148438 17.847656 C 32.210938 18.046875 32.265625 18.246094 32.316406 18.449219 C 32.367188 18.648438 32.410156 18.851562 32.453125 19.054688 C 32.492188 19.257812 32.527344 19.460938 32.558594 19.667969 C 32.589844 19.871094 32.613281 20.078125 32.632812 20.285156 C 32.65625 20.492188 32.671875 20.699219 32.679688 20.90625 C 32.691406 21.113281 32.695312 21.320312 32.695312 21.527344 C 32.695312 21.734375 32.691406 21.941406 32.679688 22.148438 C 32.667969 22.355469 32.652344 22.5625 32.632812 22.769531 C 32.613281 22.976562 32.585938 23.183594 32.554688 23.386719 C 32.527344 23.59375 32.488281 23.796875 32.449219 24 C 32.410156 24.203125 32.363281 24.40625 32.3125 24.605469 C 32.261719 24.808594 32.207031 25.007812 32.144531 25.207031 C 32.085938 25.40625 32.019531 25.601562 31.949219 25.796875 C 31.878906 25.992188 31.804688 26.183594 31.726562 26.378906 C 31.644531 26.566406 31.5625 26.757812 31.472656 26.945312 C 31.382812 27.132812 31.289062 27.316406 31.191406 27.5 C 31.09375 27.683594 30.992188 27.863281 30.886719 28.042969 C 30.777344 28.21875 30.667969 28.394531 30.550781 28.566406 C 30.4375 28.738281 30.316406 28.910156 30.191406 29.074219 C 30.070312 29.242188 29.941406 29.40625 29.808594 29.566406 C 29.679688 29.726562 29.542969 29.882812 29.402344 30.035156 C 29.265625 30.191406 29.121094 30.339844 28.972656 30.488281 C 28.828125 30.632812 28.675781 30.777344 28.523438 30.917969 C 28.371094 31.054688 28.210938 31.191406 28.050781 31.324219 C 27.890625 31.453125 27.726562 31.582031 27.5625 31.707031 C 27.394531 31.828125 27.222656 31.949219 27.050781 32.0625 C 26.878906 32.179688 26.703125 32.289062 26.527344 32.398438 C 26.347656 32.503906 26.167969 32.605469 25.984375 32.703125 C 25.800781 32.800781 25.617188 32.894531 25.429688 32.984375 C 25.242188 33.070312 25.050781 33.15625 24.859375 33.234375 C 24.667969 33.316406 24.472656 33.390625 24.277344 33.460938 C 24.082031 33.53125 23.886719 33.59375 23.6875 33.65625 C 23.488281 33.714844 23.289062 33.769531 23.085938 33.820312 C 22.886719 33.871094 22.683594 33.917969 22.480469 33.957031 C 22.277344 34 22.070312 34.035156 21.867188 34.066406 C 21.660156 34.097656 21.457031 34.121094 21.25 34.140625 C 21.042969 34.164062 20.835938 34.179688 20.628906 34.1875 C 20.421875 34.199219 20.214844 34.203125 20.003906 34.203125 Z M 26.300781 17.003906 C 26.332031 17.035156 26.359375 17.066406 26.382812 17.105469 C 26.40625 17.140625 26.429688 17.175781 26.445312 17.214844 C 26.460938 17.253906 26.472656 17.296875 26.480469 17.339844 C 26.492188 17.378906 26.496094 17.421875 26.496094 17.464844 C 26.496094 17.507812 26.492188 17.550781 26.484375 17.59375 C 26.472656 17.636719 26.460938 17.675781 26.445312 17.714844 C 26.429688 17.753906 26.410156 17.792969 26.386719 17.828125 C 26.363281 17.863281 26.335938 17.898438 26.304688 17.929688 L 19.835938 24.398438 C 19.773438 24.460938 19.703125 24.507812 19.625 24.539062 C 19.542969 24.574219 19.460938 24.589844 19.375 24.589844 L 19.371094 24.589844 C 19.285156 24.589844 19.203125 24.574219 19.121094 24.542969 C 19.042969 24.507812 18.972656 24.460938 18.910156 24.402344 C 18.886719 24.375 18.859375 24.347656 18.839844 24.316406 L 16.175781 21.152344 C 16.148438 21.117188 16.125 21.082031 16.101562 21.042969 C 16.082031 21.003906 16.066406 20.960938 16.054688 20.917969 C 16.042969 20.875 16.035156 20.832031 16.03125 20.789062 C 16.027344 20.742188 16.027344 20.699219 16.035156 20.65625 C 16.039062 20.609375 16.050781 20.566406 16.066406 20.527344 C 16.082031 20.484375 16.097656 20.445312 16.121094 20.40625 C 16.144531 20.367188 16.171875 20.332031 16.203125 20.300781 C 16.230469 20.265625 16.265625 20.238281 16.300781 20.210938 C 16.335938 20.1875 16.375 20.164062 16.414062 20.144531 C 16.457031 20.128906 16.5 20.113281 16.542969 20.105469 C 16.585938 20.09375 16.628906 20.089844 16.675781 20.089844 C 16.71875 20.089844 16.761719 20.09375 16.804688 20.101562 C 16.851562 20.109375 16.890625 20.121094 16.933594 20.140625 C 16.972656 20.15625 17.015625 20.175781 17.050781 20.203125 C 17.085938 20.226562 17.121094 20.253906 17.152344 20.289062 C 17.183594 20.320312 17.210938 20.355469 17.234375 20.390625 L 19.445312 22.941406 L 25.378906 17.007812 C 25.410156 16.980469 25.441406 16.953125 25.480469 16.929688 C 25.515625 16.90625 25.550781 16.886719 25.589844 16.871094 C 25.632812 16.855469 25.671875 16.84375 25.714844 16.835938 C 25.753906 16.828125 25.796875 16.820312 25.839844 16.820312 C 25.882812 16.820312 25.925781 16.824219 25.964844 16.832031 C 26.007812 16.839844 26.050781 16.851562 26.089844 16.867188 C 26.128906 16.882812 26.167969 16.902344 26.203125 16.925781 C 26.238281 16.949219 26.273438 16.976562 26.300781 17.003906 Z M 20.003906 10.621094 C 19.828125 10.621094 19.648438 10.625 19.472656 10.632812 C 19.292969 10.640625 19.113281 10.652344 18.9375 10.671875 C 18.761719 10.6875 18.582031 10.710938 18.40625 10.738281 C 18.230469 10.761719 18.054688 10.792969 17.878906 10.828125 C 17.703125 10.863281 17.53125 10.902344 17.359375 10.945312 C 17.183594 10.988281 17.011719 11.035156 16.84375 11.089844 C 16.671875 11.140625 16.503906 11.195312 16.335938 11.253906 C 16.167969 11.316406 16 11.378906 15.835938 11.449219 C 15.671875 11.515625 15.507812 11.589844 15.347656 11.664062 C 15.183594 11.738281 15.027344 11.820312 14.867188 11.902344 C 14.710938 11.988281 14.554688 12.074219 14.402344 12.167969 C 14.25 12.257812 14.097656 12.355469 13.949219 12.453125 C 13.800781 12.550781 13.65625 12.65625 13.515625 12.761719 C 13.371094 12.867188 13.230469 12.976562 13.09375 13.089844 C 12.953125 13.203125 12.820312 13.320312 12.6875 13.4375 C 12.554688 13.558594 12.425781 13.679688 12.300781 13.808594 C 12.171875 13.933594 12.050781 14.0625 11.929688 14.195312 C 11.8125 14.324219 11.695312 14.460938 11.582031 14.597656 C 11.46875 14.734375 11.359375 14.875 11.253906 15.019531 C 11.144531 15.164062 11.042969 15.308594 10.945312 15.457031 C 10.84375 15.605469 10.75 15.753906 10.65625 15.90625 C 10.566406 16.058594 10.476562 16.214844 10.394531 16.371094 C 10.308594 16.53125 10.230469 16.6875 10.152344 16.851562 C 10.078125 17.011719 10.003906 17.171875 9.9375 17.339844 C 9.867188 17.503906 9.804688 17.667969 9.742188 17.835938 C 9.683594 18.003906 9.628906 18.171875 9.578125 18.34375 C 9.523438 18.515625 9.476562 18.6875 9.433594 18.859375 C 9.390625 19.03125 9.351562 19.207031 9.316406 19.378906 C 9.28125 19.554688 9.25 19.730469 9.222656 19.90625 C 9.199219 20.082031 9.175781 20.261719 9.160156 20.4375 C 9.140625 20.613281 9.128906 20.792969 9.121094 20.96875 C 9.109375 21.148438 9.105469 21.324219 9.105469 21.503906 C 9.105469 21.683594 9.109375 21.859375 9.121094 22.039062 C 9.128906 22.214844 9.140625 22.394531 9.160156 22.570312 C 9.175781 22.75 9.199219 22.925781 9.222656 23.101562 C 9.25 23.277344 9.28125 23.453125 9.316406 23.628906 C 9.351562 23.804688 9.390625 23.976562 9.433594 24.148438 C 9.476562 24.320312 9.523438 24.492188 9.574219 24.664062 C 9.625 24.835938 9.683594 25.003906 9.742188 25.171875 C 9.804688 25.339844 9.867188 25.503906 9.933594 25.671875 C 10.003906 25.835938 10.074219 25.996094 10.152344 26.160156 C 10.226562 26.320312 10.308594 26.480469 10.390625 26.636719 C 10.476562 26.792969 10.5625 26.949219 10.65625 27.101562 C 10.746094 27.253906 10.84375 27.40625 10.941406 27.550781 C 11.039062 27.699219 11.144531 27.847656 11.25 27.988281 C 11.355469 28.132812 11.464844 28.273438 11.578125 28.410156 C 11.691406 28.546875 11.808594 28.683594 11.929688 28.816406 C 12.046875 28.949219 12.171875 29.078125 12.296875 29.203125 C 12.421875 29.328125 12.550781 29.453125 12.683594 29.570312 C 12.816406 29.691406 12.953125 29.808594 13.089844 29.921875 C 13.226562 30.03125 13.367188 30.140625 13.511719 30.25 C 13.652344 30.355469 13.800781 30.457031 13.949219 30.558594 C 14.097656 30.65625 14.246094 30.75 14.398438 30.84375 C 14.554688 30.933594 14.707031 31.023438 14.867188 31.105469 C 15.023438 31.191406 15.183594 31.269531 15.34375 31.347656 C 15.503906 31.421875 15.667969 31.496094 15.832031 31.5625 C 15.996094 31.632812 16.164062 31.695312 16.332031 31.753906 C 16.5 31.816406 16.667969 31.871094 16.839844 31.921875 C 17.007812 31.972656 17.179688 32.023438 17.355469 32.066406 C 17.527344 32.109375 17.703125 32.148438 17.875 32.183594 C 18.050781 32.21875 18.226562 32.246094 18.402344 32.273438 C 18.578125 32.300781 18.757812 32.320312 18.933594 32.339844 C 19.113281 32.355469 19.289062 32.371094 19.46875 32.378906 C 19.644531 32.386719 19.824219 32.390625 20.003906 32.390625 C 20.179688 32.390625 20.359375 32.386719 20.535156 32.378906 C 20.714844 32.371094 20.894531 32.359375 21.070312 32.339844 C 21.246094 32.324219 21.425781 32.300781 21.601562 32.273438 C 21.777344 32.25 21.953125 32.21875 22.128906 32.183594 C 22.304688 32.148438 22.476562 32.109375 22.652344 32.066406 C 22.824219 32.023438 22.996094 31.976562 23.164062 31.921875 C 23.335938 31.871094 23.503906 31.816406 23.671875 31.757812 C 23.839844 31.695312 24.007812 31.632812 24.171875 31.5625 C 24.335938 31.496094 24.5 31.421875 24.660156 31.347656 C 24.824219 31.273438 24.980469 31.191406 25.140625 31.109375 C 25.296875 31.023438 25.453125 30.9375 25.605469 30.84375 C 25.757812 30.753906 25.910156 30.65625 26.058594 30.558594 C 26.207031 30.460938 26.351562 30.355469 26.496094 30.25 C 26.636719 30.144531 26.777344 30.035156 26.914062 29.921875 C 27.054688 29.808594 27.1875 29.691406 27.320312 29.574219 C 27.453125 29.453125 27.582031 29.332031 27.707031 29.203125 C 27.835938 29.078125 27.957031 28.949219 28.078125 28.816406 C 28.195312 28.6875 28.3125 28.550781 28.425781 28.414062 C 28.539062 28.277344 28.648438 28.136719 28.753906 27.992188 C 28.863281 27.847656 28.964844 27.703125 29.0625 27.554688 C 29.164062 27.40625 29.257812 27.257812 29.351562 27.105469 C 29.441406 26.953125 29.53125 26.796875 29.613281 26.640625 C 29.699219 26.480469 29.777344 26.324219 29.855469 26.160156 C 29.929688 26 30.003906 25.839844 30.070312 25.671875 C 30.140625 25.507812 30.203125 25.34375 30.265625 25.175781 C 30.324219 25.007812 30.378906 24.839844 30.433594 24.667969 C 30.484375 24.496094 30.53125 24.324219 30.574219 24.152344 C 30.617188 23.980469 30.65625 23.804688 30.691406 23.632812 C 30.726562 23.457031 30.757812 23.28125 30.785156 23.105469 C 30.808594 22.929688 30.832031 22.753906 30.847656 22.574219 C 30.867188 22.398438 30.878906 22.21875 30.886719 22.042969 C 30.898438 21.863281 30.902344 21.6875 30.902344 21.507812 C 30.902344 21.328125 30.898438 21.152344 30.886719 20.972656 C 30.878906 20.796875 30.867188 20.617188 30.847656 20.441406 C 30.832031 20.265625 30.808594 20.085938 30.78125 19.910156 C 30.753906 19.734375 30.726562 19.558594 30.691406 19.382812 C 30.65625 19.210938 30.617188 19.035156 30.574219 18.863281 C 30.53125 18.691406 30.480469 18.519531 30.429688 18.347656 C 30.378906 18.179688 30.320312 18.007812 30.261719 17.839844 C 30.203125 17.675781 30.136719 17.507812 30.070312 17.34375 C 30 17.179688 29.929688 17.015625 29.851562 16.855469 C 29.777344 16.695312 29.695312 16.535156 29.613281 16.378906 C 29.527344 16.222656 29.441406 16.066406 29.347656 15.914062 C 29.257812 15.761719 29.160156 15.609375 29.0625 15.460938 C 28.964844 15.3125 28.859375 15.167969 28.753906 15.027344 C 28.648438 14.882812 28.539062 14.742188 28.425781 14.605469 C 28.3125 14.464844 28.195312 14.332031 28.074219 14.199219 C 27.957031 14.066406 27.832031 13.9375 27.707031 13.8125 C 27.582031 13.6875 27.453125 13.5625 27.320312 13.445312 C 27.1875 13.324219 27.054688 13.207031 26.914062 13.09375 C 26.777344 12.984375 26.636719 12.871094 26.492188 12.765625 C 26.351562 12.660156 26.203125 12.558594 26.058594 12.460938 C 25.910156 12.359375 25.757812 12.265625 25.605469 12.171875 C 25.453125 12.082031 25.296875 11.992188 25.140625 11.910156 C 24.984375 11.824219 24.824219 11.746094 24.664062 11.667969 C 24.5 11.59375 24.339844 11.519531 24.171875 11.453125 C 24.007812 11.382812 23.84375 11.320312 23.675781 11.257812 C 23.507812 11.199219 23.339844 11.144531 23.167969 11.089844 C 22.996094 11.039062 22.824219 10.992188 22.652344 10.949219 C 22.480469 10.90625 22.304688 10.867188 22.128906 10.832031 C 21.957031 10.796875 21.78125 10.765625 21.605469 10.738281 C 21.425781 10.714844 21.25 10.691406 21.074219 10.671875 C 20.894531 10.65625 20.71875 10.640625 20.539062 10.632812 C 20.363281 10.625 20.183594 10.621094 20.003906 10.621094 Z M 20.417969 31.203125 C 20.421875 31.179688 20.425781 31.15625 20.425781 31.132812 L 20.425781 29.359375 C 20.425781 29.324219 20.421875 29.285156 20.414062 29.25 C 20.40625 29.210938 20.398438 29.175781 20.382812 29.140625 C 20.367188 29.105469 20.351562 29.074219 20.328125 29.042969 C 20.308594 29.011719 20.285156 28.980469 20.257812 28.953125 C 20.230469 28.929688 20.203125 28.90625 20.171875 28.882812 C 20.140625 28.863281 20.105469 28.84375 20.070312 28.832031 C 20.035156 28.816406 20 28.804688 19.964844 28.796875 C 19.925781 28.789062 19.890625 28.785156 19.851562 28.785156 C 19.8125 28.785156 19.777344 28.789062 19.738281 28.796875 C 19.703125 28.804688 19.664062 28.816406 19.632812 28.832031 C 19.597656 28.84375 19.5625 28.863281 19.53125 28.882812 C 19.5 28.90625 19.472656 28.929688 19.445312 28.953125 C 19.417969 28.980469 19.394531 29.011719 19.375 29.042969 C 19.351562 29.074219 19.335938 29.105469 19.320312 29.140625 C 19.304688 29.175781 19.292969 29.210938 19.289062 29.25 C 19.28125 29.285156 19.277344 29.324219 19.277344 29.359375 L 19.277344 31.132812 C 19.277344 31.148438 19.28125 31.164062 19.28125 31.183594 C 18.996094 31.160156 18.714844 31.125 18.433594 31.078125 C 18.15625 31.035156 17.878906 30.976562 17.601562 30.90625 C 17.328125 30.835938 17.054688 30.75 16.785156 30.65625 C 16.519531 30.5625 16.253906 30.457031 15.996094 30.339844 C 15.738281 30.222656 15.484375 30.09375 15.238281 29.953125 C 14.988281 29.816406 14.75 29.664062 14.515625 29.503906 C 14.28125 29.34375 14.054688 29.171875 13.832031 28.992188 C 13.613281 28.8125 13.402344 28.621094 13.199219 28.421875 C 12.996094 28.222656 12.804688 28.015625 12.621094 27.800781 C 12.433594 27.585938 12.261719 27.359375 12.09375 27.128906 C 11.929688 26.898438 11.777344 26.660156 11.632812 26.414062 C 11.488281 26.171875 11.355469 25.921875 11.234375 25.664062 C 11.109375 25.40625 11 25.148438 10.902344 24.878906 C 10.800781 24.613281 10.714844 24.34375 10.640625 24.070312 C 10.5625 23.796875 10.5 23.519531 10.449219 23.242188 C 10.398438 22.960938 10.359375 22.679688 10.332031 22.398438 C 10.363281 22.40625 10.398438 22.40625 10.429688 22.410156 L 11.761719 22.410156 C 11.835938 22.40625 11.910156 22.390625 11.980469 22.363281 C 12.050781 22.332031 12.113281 22.292969 12.167969 22.238281 C 12.207031 22.199219 12.242188 22.152344 12.269531 22.105469 C 12.296875 22.054688 12.3125 22 12.324219 21.945312 C 12.335938 21.890625 12.339844 21.832031 12.332031 21.777344 C 12.328125 21.71875 12.3125 21.664062 12.292969 21.613281 C 12.269531 21.5625 12.242188 21.511719 12.207031 21.46875 C 12.167969 21.425781 12.128906 21.386719 12.082031 21.355469 C 12.03125 21.324219 11.980469 21.300781 11.929688 21.285156 C 11.875 21.265625 11.816406 21.257812 11.761719 21.257812 L 10.429688 21.257812 C 10.386719 21.257812 10.339844 21.265625 10.296875 21.277344 C 10.300781 21.128906 10.308594 20.984375 10.316406 20.835938 C 10.328125 20.6875 10.339844 20.542969 10.359375 20.394531 C 10.375 20.246094 10.394531 20.101562 10.417969 19.957031 C 10.441406 19.808594 10.46875 19.664062 10.5 19.519531 C 10.53125 19.375 10.566406 19.234375 10.601562 19.089844 C 10.640625 18.945312 10.679688 18.804688 10.722656 18.664062 C 10.765625 18.523438 10.8125 18.382812 10.863281 18.242188 C 10.910156 18.105469 10.964844 17.964844 11.019531 17.832031 C 11.078125 17.695312 11.136719 17.558594 11.199219 17.425781 C 11.261719 17.289062 11.324219 17.160156 11.394531 17.027344 C 11.460938 16.898438 11.535156 16.765625 11.609375 16.640625 C 11.683594 16.511719 11.757812 16.386719 11.839844 16.261719 C 11.917969 16.136719 12 16.015625 12.085938 15.894531 C 12.171875 15.773438 12.261719 15.65625 12.351562 15.539062 C 12.441406 15.421875 12.535156 15.308594 12.632812 15.195312 C 12.726562 15.085938 12.828125 14.976562 12.929688 14.867188 C 13.027344 14.761719 13.132812 14.65625 13.238281 14.550781 C 13.34375 14.449219 13.453125 14.347656 13.5625 14.25 C 13.671875 14.152344 13.785156 14.058594 13.902344 13.964844 C 14.015625 13.871094 14.132812 13.78125 14.253906 13.695312 C 14.371094 13.605469 14.492188 13.519531 14.613281 13.4375 C 14.738281 13.355469 14.863281 13.277344 14.988281 13.203125 C 15.117188 13.125 15.242188 13.050781 15.375 12.980469 C 15.503906 12.910156 15.632812 12.84375 15.765625 12.777344 C 15.898438 12.714844 16.035156 12.652344 16.171875 12.59375 C 16.304688 12.535156 16.441406 12.480469 16.582031 12.429688 C 16.71875 12.375 16.859375 12.328125 17 12.28125 C 17.140625 12.234375 17.28125 12.191406 17.421875 12.152344 C 17.566406 12.113281 17.707031 12.078125 17.851562 12.046875 C 17.996094 12.011719 18.140625 11.984375 18.285156 11.957031 C 18.433594 11.929688 18.578125 11.90625 18.726562 11.886719 C 18.871094 11.867188 19.019531 11.851562 19.164062 11.839844 L 19.164062 13.640625 C 19.164062 13.679688 19.167969 13.71875 19.175781 13.753906 C 19.183594 13.789062 19.195312 13.828125 19.210938 13.863281 C 19.222656 13.898438 19.242188 13.929688 19.261719 13.960938 C 19.285156 13.992188 19.308594 14.019531 19.332031 14.046875 C 19.359375 14.074219 19.390625 14.097656 19.421875 14.121094 C 19.453125 14.140625 19.484375 14.15625 19.519531 14.171875 C 19.554688 14.1875 19.589844 14.199219 19.628906 14.203125 C 19.664062 14.210938 19.703125 14.214844 19.742188 14.214844 C 19.777344 14.214844 19.816406 14.210938 19.851562 14.203125 C 19.890625 14.199219 19.925781 14.1875 19.960938 14.171875 C 19.996094 14.15625 20.027344 14.140625 20.058594 14.121094 C 20.089844 14.097656 20.121094 14.074219 20.148438 14.046875 C 20.171875 14.019531 20.195312 13.992188 20.21875 13.960938 C 20.238281 13.929688 20.257812 13.898438 20.269531 13.863281 C 20.285156 13.828125 20.296875 13.789062 20.304688 13.753906 C 20.3125 13.71875 20.316406 13.679688 20.316406 13.640625 L 20.316406 11.808594 C 20.464844 11.8125 20.613281 11.820312 20.761719 11.832031 C 20.914062 11.84375 21.0625 11.859375 21.210938 11.878906 C 21.359375 11.898438 21.507812 11.917969 21.652344 11.945312 C 21.800781 11.96875 21.949219 12 22.09375 12.03125 C 22.242188 12.0625 22.386719 12.097656 22.53125 12.136719 C 22.675781 12.175781 22.816406 12.21875 22.960938 12.265625 C 23.101562 12.308594 23.246094 12.359375 23.386719 12.410156 C 23.527344 12.464844 23.664062 12.519531 23.800781 12.578125 C 23.941406 12.636719 24.078125 12.699219 24.210938 12.761719 C 24.347656 12.828125 24.480469 12.894531 24.609375 12.964844 C 24.742188 13.035156 24.871094 13.109375 25 13.1875 C 25.128906 13.265625 25.253906 13.34375 25.378906 13.429688 C 25.503906 13.511719 25.628906 13.597656 25.75 13.683594 C 25.871094 13.773438 25.988281 13.863281 26.105469 13.957031 C 26.21875 14.050781 26.335938 14.148438 26.445312 14.246094 C 26.558594 14.347656 26.667969 14.449219 26.777344 14.554688 C 26.882812 14.65625 26.988281 14.765625 27.089844 14.871094 C 27.191406 14.980469 27.292969 15.09375 27.390625 15.207031 C 27.488281 15.320312 27.582031 15.4375 27.671875 15.554688 C 27.765625 15.671875 27.855469 15.792969 27.941406 15.914062 C 28.027344 16.035156 28.109375 16.160156 28.191406 16.285156 C 28.273438 16.414062 28.347656 16.539062 28.421875 16.671875 C 28.5 16.800781 28.570312 16.929688 28.640625 17.0625 C 28.707031 17.195312 28.773438 17.332031 28.835938 17.46875 C 28.898438 17.601562 28.957031 17.742188 29.011719 17.878906 C 29.070312 18.015625 29.121094 18.15625 29.171875 18.296875 C 29.222656 18.441406 29.265625 18.582031 29.308594 18.726562 C 29.351562 18.867188 29.394531 19.011719 29.429688 19.15625 C 29.464844 19.300781 29.5 19.449219 29.527344 19.59375 C 29.558594 19.742188 29.585938 19.886719 29.605469 20.035156 C 29.628906 20.183594 29.648438 20.332031 29.664062 20.480469 C 29.683594 20.628906 29.695312 20.777344 29.703125 20.929688 L 28.273438 20.929688 C 28.234375 20.929688 28.199219 20.929688 28.160156 20.9375 C 28.125 20.945312 28.089844 20.957031 28.054688 20.972656 C 28.019531 20.984375 27.984375 21.003906 27.953125 21.023438 C 27.921875 21.046875 27.894531 21.070312 27.867188 21.097656 C 27.839844 21.121094 27.816406 21.152344 27.796875 21.183594 C 27.773438 21.214844 27.757812 21.246094 27.742188 21.28125 C 27.726562 21.316406 27.71875 21.351562 27.710938 21.390625 C 27.703125 21.425781 27.699219 21.464844 27.699219 21.503906 C 27.699219 21.539062 27.703125 21.578125 27.710938 21.613281 C 27.71875 21.652344 27.726562 21.6875 27.742188 21.722656 C 27.757812 21.757812 27.773438 21.789062 27.796875 21.820312 C 27.816406 21.851562 27.839844 21.882812 27.867188 21.90625 C 27.894531 21.933594 27.921875 21.957031 27.953125 21.980469 C 27.984375 22 28.019531 22.019531 28.054688 22.03125 C 28.089844 22.046875 28.125 22.058594 28.160156 22.066406 C 28.199219 22.074219 28.234375 22.078125 28.273438 22.078125 L 29.703125 22.078125 C 29.695312 22.222656 29.683594 22.371094 29.667969 22.519531 C 29.652344 22.667969 29.632812 22.816406 29.609375 22.960938 C 29.585938 23.109375 29.5625 23.253906 29.53125 23.402344 C 29.503906 23.546875 29.46875 23.691406 29.433594 23.835938 C 29.398438 23.980469 29.359375 24.121094 29.316406 24.265625 C 29.273438 24.40625 29.230469 24.546875 29.179688 24.6875 C 29.132812 24.828125 29.078125 24.96875 29.023438 25.105469 C 28.96875 25.246094 28.910156 25.378906 28.847656 25.515625 C 28.785156 25.652344 28.722656 25.785156 28.65625 25.917969 C 28.585938 26.050781 28.515625 26.179688 28.441406 26.308594 C 28.371094 26.4375 28.292969 26.566406 28.214844 26.691406 C 28.132812 26.816406 28.050781 26.941406 27.964844 27.0625 C 27.878906 27.183594 27.792969 27.304688 27.703125 27.421875 C 27.609375 27.539062 27.519531 27.652344 27.421875 27.769531 C 27.328125 27.882812 27.226562 27.992188 27.125 28.101562 C 27.027344 28.210938 26.921875 28.316406 26.816406 28.421875 C 26.710938 28.523438 26.601562 28.625 26.492188 28.726562 C 26.378906 28.824219 26.265625 28.921875 26.152344 29.015625 C 26.035156 29.109375 25.921875 29.203125 25.800781 29.289062 C 25.679688 29.378906 25.558594 29.464844 25.4375 29.546875 C 25.3125 29.628906 25.1875 29.710938 25.0625 29.789062 C 24.933594 29.867188 24.804688 29.941406 24.675781 30.011719 C 24.546875 30.082031 24.414062 30.152344 24.28125 30.21875 C 24.148438 30.28125 24.011719 30.34375 23.875 30.402344 C 23.738281 30.464844 23.601562 30.519531 23.460938 30.574219 C 23.324219 30.625 23.183594 30.675781 23.042969 30.722656 C 22.902344 30.769531 22.757812 30.8125 22.617188 30.851562 C 22.472656 30.890625 22.328125 30.929688 22.183594 30.960938 C 22.039062 30.996094 21.894531 31.027344 21.746094 31.050781 C 21.601562 31.078125 21.453125 31.101562 21.308594 31.121094 C 21.160156 31.140625 21.011719 31.160156 20.863281 31.171875 C 20.714844 31.1875 20.566406 31.195312 20.417969 31.203125 Z M 20.417969 31.203125 "/>
</g>
</g>
</svg>
