<?xml version="1.0" encoding="UTF-8"?>
<svg xmlns="http://www.w3.org/2000/svg" xmlns:xlink="http://www.w3.org/1999/xlink" width="40px" height="px" viewBox="0 0 40 40" version="1.1">
<defs>
<clipPath id="clip1">
  <path d="M 2.613281 26.347656 L 36.453125 26.347656 L 36.453125 36.550781 L 2.613281 36.550781 Z M 2.613281 26.347656 "/>
</clipPath>
</defs>
<g id="surface1">
<path style=" stroke:none;fill-rule:nonzero;fill:rgb(0%,0%,0%);fill-opacity:1;" d="M 5.433594 33.164062 L 10.507812 33.164062 L 10.507812 34.292969 L 5.433594 34.292969 Z M 5.433594 33.164062 "/>
<path style=" stroke:none;fill-rule:nonzero;fill:rgb(0%,0%,0%);fill-opacity:1;" d="M 5.433594 30.90625 L 10.507812 30.90625 L 10.507812 32.035156 L 5.433594 32.035156 Z M 5.433594 30.90625 "/>
<path style=" stroke:none;fill-rule:nonzero;fill:rgb(0%,0%,0%);fill-opacity:1;" d="M 5.433594 28.644531 L 10.507812 28.644531 L 10.507812 29.777344 L 5.433594 29.777344 Z M 5.433594 28.644531 "/>
<g clip-path="url(#clip1)" clip-rule="nonzero">
<path style=" stroke:none;fill-rule:nonzero;fill:rgb(0%,0%,0%);fill-opacity:1;" d="M 36.007812 29.644531 C 35.867188 29.511719 35.707031 29.414062 35.523438 29.347656 C 35.34375 29.277344 35.15625 29.25 34.960938 29.261719 L 26.300781 29.742188 L 26.300781 28.644531 L 25.171875 28.644531 L 25.171875 29.777344 L 14.757812 29.777344 L 12.667969 26.640625 C 12.617188 26.5625 12.550781 26.5 12.464844 26.453125 C 12.382812 26.410156 12.296875 26.386719 12.199219 26.386719 L 4.304688 26.386719 C 4.195312 26.386719 4.085938 26.398438 3.976562 26.421875 C 3.867188 26.441406 3.761719 26.476562 3.660156 26.515625 C 3.554688 26.558594 3.457031 26.613281 3.367188 26.675781 C 3.273438 26.734375 3.1875 26.804688 3.109375 26.882812 C 3.03125 26.964844 2.960938 27.046875 2.898438 27.140625 C 2.835938 27.234375 2.785156 27.332031 2.742188 27.433594 C 2.699219 27.535156 2.667969 27.640625 2.644531 27.75 C 2.625 27.859375 2.613281 27.96875 2.613281 28.082031 L 2.613281 34.855469 C 2.613281 34.96875 2.625 35.078125 2.644531 35.1875 C 2.667969 35.296875 2.699219 35.402344 2.742188 35.503906 C 2.785156 35.605469 2.835938 35.703125 2.898438 35.796875 C 2.960938 35.890625 3.03125 35.972656 3.109375 36.054688 C 3.1875 36.132812 3.273438 36.203125 3.367188 36.265625 C 3.457031 36.324219 3.554688 36.378906 3.660156 36.421875 C 3.761719 36.464844 3.867188 36.496094 3.976562 36.515625 C 4.085938 36.539062 4.195312 36.550781 4.304688 36.550781 L 12.199219 36.550781 C 12.296875 36.550781 12.382812 36.527344 12.464844 36.484375 C 12.550781 36.4375 12.617188 36.378906 12.667969 36.296875 L 14.757812 33.164062 L 25.171875 33.164062 L 25.171875 34.292969 L 26.300781 34.292969 L 26.300781 33.195312 L 34.960938 33.675781 C 34.988281 33.679688 35.015625 33.679688 35.039062 33.679688 C 35.132812 33.679688 35.222656 33.671875 35.316406 33.652344 C 35.40625 33.632812 35.492188 33.605469 35.578125 33.570312 C 35.664062 33.535156 35.746094 33.492188 35.824219 33.441406 C 35.902344 33.390625 35.972656 33.332031 36.035156 33.265625 C 36.101562 33.199219 36.160156 33.128906 36.214844 33.050781 C 36.265625 32.976562 36.308594 32.894531 36.34375 32.808594 C 36.378906 32.722656 36.40625 32.632812 36.421875 32.542969 C 36.441406 32.453125 36.449219 32.359375 36.449219 32.265625 L 36.449219 30.671875 C 36.449219 30.476562 36.410156 30.289062 36.335938 30.113281 C 36.257812 29.933594 36.148438 29.777344 36.007812 29.644531 Z M 14.457031 32.035156 C 14.363281 32.035156 14.273438 32.054688 14.191406 32.101562 C 14.105469 32.144531 14.039062 32.207031 13.988281 32.285156 L 11.898438 35.421875 L 4.304688 35.421875 C 4.269531 35.421875 4.230469 35.417969 4.195312 35.410156 C 4.160156 35.402344 4.125 35.390625 4.089844 35.378906 C 4.054688 35.363281 4.023438 35.347656 3.992188 35.324219 C 3.960938 35.304688 3.933594 35.28125 3.90625 35.253906 C 3.878906 35.230469 3.855469 35.199219 3.835938 35.171875 C 3.816406 35.140625 3.796875 35.105469 3.785156 35.074219 C 3.769531 35.039062 3.757812 35.003906 3.753906 34.964844 C 3.746094 34.929688 3.742188 34.894531 3.742188 34.855469 L 3.742188 28.082031 C 3.742188 28.042969 3.746094 28.007812 3.753906 27.972656 C 3.757812 27.933594 3.769531 27.898438 3.785156 27.867188 C 3.796875 27.832031 3.816406 27.800781 3.835938 27.769531 C 3.855469 27.738281 3.878906 27.707031 3.90625 27.683594 C 3.933594 27.65625 3.960938 27.632812 3.992188 27.613281 C 4.023438 27.59375 4.054688 27.574219 4.089844 27.558594 C 4.125 27.546875 4.160156 27.535156 4.195312 27.527344 C 4.230469 27.519531 4.269531 27.515625 4.304688 27.515625 L 11.898438 27.515625 L 13.988281 30.652344 C 14.039062 30.730469 14.105469 30.792969 14.191406 30.839844 C 14.273438 30.882812 14.363281 30.90625 14.457031 30.90625 L 25.171875 30.90625 L 25.171875 32.035156 Z M 26.300781 30.875 L 27.425781 30.8125 L 27.425781 32.125 L 26.300781 32.0625 Z M 35.320312 32.265625 C 35.324219 32.304688 35.316406 32.34375 35.300781 32.378906 C 35.285156 32.414062 35.261719 32.445312 35.234375 32.472656 C 35.207031 32.5 35.171875 32.519531 35.136719 32.53125 C 35.101562 32.546875 35.0625 32.550781 35.023438 32.550781 L 28.554688 32.191406 L 28.554688 30.75 L 35.023438 30.390625 C 35.0625 30.386719 35.101562 30.390625 35.136719 30.40625 C 35.171875 30.417969 35.207031 30.4375 35.234375 30.464844 C 35.261719 30.492188 35.285156 30.523438 35.300781 30.558594 C 35.316406 30.59375 35.324219 30.632812 35.320312 30.671875 Z M 35.320312 32.265625 "/>
</g>
<path style=" stroke:none;fill-rule:nonzero;fill:rgb(0%,0%,0%);fill-opacity:1;" d="M 9.648438 18.867188 C 9.707031 18.882812 9.765625 18.902344 9.824219 18.925781 C 9.882812 18.953125 9.9375 18.980469 9.988281 19.015625 C 10.042969 19.050781 10.089844 19.089844 10.136719 19.128906 C 10.183594 19.171875 10.226562 19.21875 10.265625 19.269531 C 10.304688 19.316406 10.339844 19.371094 10.367188 19.425781 C 10.398438 19.480469 10.421875 19.535156 10.445312 19.597656 C 10.464844 19.65625 10.480469 19.714844 10.492188 19.777344 C 10.503906 19.839844 10.507812 19.902344 10.507812 19.964844 L 10.507812 25.257812 L 11.636719 25.257812 L 11.636719 19.964844 C 11.636719 19.839844 11.625 19.714844 11.605469 19.59375 C 11.582031 19.46875 11.550781 19.347656 11.511719 19.230469 C 11.472656 19.113281 11.421875 19 11.359375 18.890625 C 11.300781 18.78125 11.234375 18.675781 11.15625 18.578125 C 11.082031 18.480469 10.996094 18.386719 10.90625 18.304688 C 10.8125 18.21875 10.714844 18.140625 10.609375 18.074219 C 10.507812 18.003906 10.398438 17.945312 10.285156 17.894531 C 10.167969 17.847656 10.050781 17.804688 9.933594 17.773438 C 9.804688 17.742188 9.675781 17.703125 9.550781 17.65625 C 9.425781 17.613281 9.304688 17.5625 9.183594 17.503906 C 9.0625 17.449219 8.945312 17.390625 8.828125 17.324219 C 8.714844 17.257812 8.601562 17.1875 8.492188 17.109375 C 8.386719 17.035156 8.28125 16.953125 8.179688 16.867188 C 8.074219 16.785156 7.976562 16.695312 7.882812 16.601562 C 7.789062 16.507812 7.699219 16.410156 7.617188 16.308594 C 7.53125 16.203125 7.449219 16.097656 7.375 15.992188 C 7.296875 15.882812 7.226562 15.769531 7.160156 15.652344 C 7.09375 15.539062 7.035156 15.421875 6.976562 15.300781 C 6.921875 15.179688 6.871094 15.058594 6.828125 14.933594 C 6.78125 14.808594 6.742188 14.679688 6.707031 14.550781 C 6.675781 14.421875 6.648438 14.292969 6.625 14.164062 C 6.601562 14.03125 6.585938 13.902344 6.574219 13.769531 C 6.566406 13.636719 6.558594 13.503906 6.5625 13.371094 C 6.5625 13.238281 6.570312 13.105469 6.582031 12.972656 C 6.59375 12.839844 6.613281 12.707031 6.636719 12.578125 C 6.660156 12.449219 6.691406 12.316406 6.726562 12.191406 C 6.761719 12.0625 6.804688 11.9375 6.851562 11.8125 C 6.898438 11.6875 6.949219 11.566406 7.007812 11.445312 C 7.066406 11.324219 7.128906 11.210938 7.195312 11.09375 C 7.261719 10.980469 7.335938 10.871094 7.414062 10.761719 C 7.492188 10.652344 7.574219 10.550781 7.660156 10.449219 C 7.746094 10.347656 7.835938 10.253906 7.933594 10.160156 C 8.027344 10.066406 8.128906 9.980469 8.230469 9.894531 C 8.332031 9.8125 8.441406 9.734375 8.550781 9.660156 C 8.660156 9.585938 8.773438 9.515625 8.890625 9.453125 C 9.003906 9.386719 9.125 9.328125 9.246094 9.273438 C 9.367188 9.21875 9.492188 9.171875 9.617188 9.128906 C 9.742188 9.085938 9.867188 9.046875 9.996094 9.015625 C 10.125 8.984375 10.257812 8.960938 10.386719 8.941406 C 10.519531 8.917969 10.652344 8.90625 10.785156 8.894531 C 10.914062 8.886719 11.046875 8.886719 11.179688 8.886719 C 11.3125 8.890625 11.445312 8.902344 11.578125 8.914062 C 11.710938 8.929688 11.839844 8.949219 11.96875 8.976562 C 12.101562 9.003906 12.230469 9.035156 12.355469 9.074219 C 12.484375 9.109375 12.609375 9.15625 12.734375 9.203125 C 12.855469 9.253906 12.976562 9.308594 13.09375 9.367188 C 13.214844 9.425781 13.328125 9.492188 13.441406 9.558594 C 13.554688 9.628906 13.664062 9.703125 13.773438 9.785156 C 13.878906 9.863281 13.980469 9.949219 14.078125 10.035156 C 14.179688 10.125 14.273438 10.21875 14.363281 10.3125 C 14.453125 10.410156 14.542969 10.511719 14.625 10.617188 C 14.707031 10.722656 14.78125 10.828125 14.855469 10.941406 C 14.925781 11.050781 14.996094 11.164062 15.058594 11.28125 C 15.121094 11.398438 15.175781 11.519531 15.226562 11.640625 C 15.28125 11.765625 15.324219 11.890625 15.367188 12.015625 C 15.40625 12.140625 15.441406 12.269531 15.472656 12.398438 L 16.570312 12.148438 C 16.488281 11.777344 16.367188 11.417969 16.207031 11.070312 C 16.050781 10.722656 15.859375 10.398438 15.632812 10.089844 C 15.410156 9.78125 15.15625 9.496094 14.875 9.242188 C 14.59375 8.984375 14.289062 8.757812 13.964844 8.5625 C 13.992188 8.394531 14.023438 8.226562 14.066406 8.058594 C 14.109375 7.890625 14.160156 7.726562 14.214844 7.566406 C 14.273438 7.40625 14.339844 7.246094 14.410156 7.089844 C 14.480469 6.933594 14.5625 6.78125 14.648438 6.632812 C 14.730469 6.484375 14.824219 6.339844 14.921875 6.199219 C 15.023438 6.058594 15.128906 5.921875 15.238281 5.792969 C 15.347656 5.660156 15.464844 5.535156 15.589844 5.417969 C 15.710938 5.296875 15.839844 5.183594 15.972656 5.074219 C 16.105469 4.964844 16.242188 4.863281 16.386719 4.765625 C 16.527344 4.671875 16.675781 4.582031 16.824219 4.5 C 16.976562 4.417969 17.128906 4.34375 17.285156 4.273438 C 17.441406 4.207031 17.605469 4.144531 17.765625 4.089844 C 17.929688 4.035156 18.09375 3.992188 18.261719 3.953125 C 18.429688 3.914062 18.597656 3.882812 18.765625 3.859375 C 18.9375 3.835938 19.109375 3.820312 19.277344 3.8125 C 19.449219 3.804688 19.621094 3.804688 19.792969 3.8125 C 19.964844 3.820312 20.132812 3.835938 20.304688 3.859375 C 20.472656 3.882812 20.644531 3.914062 20.808594 3.953125 C 20.976562 3.992188 21.140625 4.039062 21.304688 4.09375 C 21.46875 4.148438 21.628906 4.210938 21.785156 4.277344 C 21.941406 4.347656 22.097656 4.421875 22.246094 4.503906 C 22.394531 4.585938 22.542969 4.675781 22.683594 4.773438 C 22.828125 4.867188 22.964844 4.972656 23.097656 5.078125 C 23.230469 5.1875 23.359375 5.300781 23.480469 5.421875 C 23.601562 5.542969 23.71875 5.667969 23.832031 5.800781 C 23.941406 5.929688 24.046875 6.066406 24.144531 6.207031 C 24.242188 6.347656 24.335938 6.492188 24.421875 6.640625 C 24.507812 6.789062 24.585938 6.941406 24.65625 7.097656 C 24.726562 7.253906 24.792969 7.414062 24.847656 7.574219 C 24.90625 7.738281 24.957031 7.902344 24.996094 8.066406 C 25.039062 8.234375 25.074219 8.402344 25.101562 8.570312 C 25.128906 8.742188 25.144531 8.910156 25.15625 9.082031 C 24.558594 9.433594 24.039062 9.878906 23.605469 10.417969 L 24.480469 11.128906 C 24.539062 11.058594 24.59375 10.992188 24.65625 10.925781 C 24.714844 10.863281 24.777344 10.796875 24.839844 10.734375 C 24.902344 10.671875 24.96875 10.613281 25.035156 10.554688 C 25.101562 10.496094 25.171875 10.441406 25.242188 10.386719 C 25.3125 10.332031 25.382812 10.28125 25.457031 10.230469 C 25.53125 10.179688 25.605469 10.132812 25.683594 10.085938 C 25.757812 10.042969 25.835938 10 25.914062 9.957031 C 25.996094 9.917969 26.074219 9.878906 26.15625 9.84375 C 26.234375 9.808594 26.316406 9.773438 26.402344 9.742188 C 26.484375 9.710938 26.570312 9.679688 26.652344 9.65625 C 26.738281 9.628906 26.824219 9.605469 26.910156 9.582031 C 26.996094 9.5625 27.082031 9.542969 27.171875 9.527344 C 27.257812 9.511719 27.34375 9.496094 27.433594 9.488281 C 27.519531 9.476562 27.609375 9.46875 27.699219 9.460938 C 27.785156 9.457031 27.875 9.453125 27.964844 9.453125 C 28.054688 9.453125 28.140625 9.453125 28.230469 9.457031 C 28.320312 9.464844 28.40625 9.472656 28.496094 9.480469 C 28.585938 9.492188 28.671875 9.503906 28.757812 9.519531 C 28.847656 9.535156 28.933594 9.550781 29.019531 9.570312 C 29.105469 9.589844 29.191406 9.613281 29.277344 9.640625 C 29.363281 9.664062 29.445312 9.691406 29.53125 9.722656 C 29.613281 9.753906 29.695312 9.785156 29.777344 9.820312 C 29.859375 9.855469 29.941406 9.894531 30.019531 9.933594 C 30.097656 9.972656 30.175781 10.015625 30.253906 10.0625 C 30.328125 10.105469 30.40625 10.152344 30.480469 10.203125 C 30.554688 10.25 30.625 10.300781 30.695312 10.355469 C 30.769531 10.410156 30.835938 10.464844 30.90625 10.519531 C 30.972656 10.578125 31.039062 10.636719 31.101562 10.699219 C 31.167969 10.761719 31.230469 10.824219 31.289062 10.890625 C 31.351562 10.953125 31.410156 11.019531 31.464844 11.089844 C 31.523438 11.15625 31.578125 11.226562 31.628906 11.300781 C 31.683594 11.371094 31.734375 11.445312 31.78125 11.519531 C 31.828125 11.59375 31.875 11.667969 31.917969 11.746094 C 31.960938 11.824219 32.003906 11.902344 32.042969 11.984375 C 32.082031 12.0625 32.117188 12.144531 32.152344 12.226562 C 32.1875 12.308594 32.21875 12.390625 32.246094 12.472656 C 32.277344 12.558594 32.304688 12.640625 32.328125 12.726562 C 32.351562 12.8125 32.375 12.898438 32.394531 12.984375 C 32.414062 13.074219 32.429688 13.160156 32.445312 13.25 C 32.457031 13.335938 32.46875 13.425781 32.480469 13.511719 C 32.488281 13.601562 32.496094 13.691406 32.5 13.777344 C 32.503906 13.867188 32.503906 13.957031 32.5 14.042969 C 32.5 14.132812 32.496094 14.222656 32.488281 14.3125 C 32.484375 14.398438 32.472656 14.488281 32.460938 14.574219 C 32.449219 14.664062 32.433594 14.75 32.417969 14.839844 C 32.402344 14.925781 32.382812 15.011719 32.359375 15.097656 C 32.335938 15.183594 32.3125 15.269531 32.285156 15.355469 C 32.257812 15.4375 32.226562 15.523438 32.195312 15.605469 C 32.164062 15.6875 32.128906 15.769531 32.09375 15.851562 C 32.054688 15.933594 32.015625 16.011719 31.972656 16.089844 C 31.933594 16.167969 31.886719 16.246094 31.84375 16.320312 C 31.796875 16.398438 31.746094 16.472656 31.695312 16.546875 C 31.644531 16.617188 31.59375 16.691406 31.539062 16.757812 C 31.484375 16.828125 31.425781 16.898438 31.367188 16.964844 C 31.308594 17.03125 31.25 17.09375 31.183594 17.160156 C 31.121094 17.222656 31.058594 17.28125 30.992188 17.339844 C 30.925781 17.402344 30.859375 17.457031 30.789062 17.511719 C 30.71875 17.566406 30.648438 17.621094 30.574219 17.671875 C 30.5 17.722656 30.425781 17.769531 30.351562 17.816406 C 30.277344 17.863281 30.199219 17.910156 30.121094 17.949219 C 30.042969 17.992188 29.964844 18.03125 29.882812 18.070312 C 29.800781 18.105469 29.722656 18.140625 29.636719 18.171875 C 29.554688 18.207031 29.472656 18.234375 29.386719 18.265625 C 29.304688 18.292969 29.21875 18.316406 29.132812 18.339844 C 29.011719 18.371094 28.894531 18.410156 28.78125 18.460938 C 28.664062 18.511719 28.558594 18.570312 28.453125 18.640625 C 28.347656 18.707031 28.25 18.785156 28.160156 18.867188 C 28.066406 18.953125 27.984375 19.042969 27.90625 19.140625 C 27.828125 19.242188 27.761719 19.34375 27.703125 19.453125 C 27.640625 19.5625 27.59375 19.679688 27.550781 19.796875 C 27.511719 19.914062 27.480469 20.035156 27.460938 20.15625 C 27.4375 20.28125 27.425781 20.402344 27.425781 20.527344 L 27.425781 26.386719 L 23.480469 26.386719 L 23.480469 23.234375 L 25.007812 21.707031 L 24.207031 20.90625 L 22.515625 22.601562 C 22.464844 22.65625 22.421875 22.714844 22.394531 22.785156 C 22.367188 22.855469 22.351562 22.925781 22.351562 23 L 22.351562 26.386719 L 20.097656 26.386719 L 20.097656 21.308594 L 18.96875 21.308594 L 18.96875 26.386719 L 16.710938 26.386719 L 16.710938 23 C 16.710938 22.925781 16.699219 22.855469 16.667969 22.785156 C 16.640625 22.714844 16.601562 22.65625 16.546875 22.601562 L 14.855469 20.90625 L 14.058594 21.707031 L 15.585938 23.234375 L 15.585938 26.386719 L 14.457031 26.386719 L 14.457031 27.515625 L 27.425781 27.515625 L 27.425781 28.644531 L 28.554688 28.644531 L 28.554688 20.527344 C 28.554688 20.464844 28.5625 20.402344 28.570312 20.339844 C 28.582031 20.28125 28.597656 20.21875 28.621094 20.160156 C 28.640625 20.101562 28.664062 20.042969 28.695312 19.988281 C 28.726562 19.933594 28.761719 19.882812 28.796875 19.832031 C 28.835938 19.785156 28.878906 19.738281 28.925781 19.695312 C 28.972656 19.652344 29.023438 19.613281 29.074219 19.582031 C 29.128906 19.546875 29.183594 19.515625 29.238281 19.492188 C 29.296875 19.46875 29.355469 19.445312 29.417969 19.429688 C 29.597656 19.382812 29.777344 19.328125 29.953125 19.261719 C 30.128906 19.195312 30.300781 19.121094 30.472656 19.039062 C 30.640625 18.953125 30.804688 18.863281 30.964844 18.765625 C 31.121094 18.664062 31.277344 18.558594 31.425781 18.441406 C 31.574219 18.328125 31.71875 18.203125 31.855469 18.074219 C 31.992188 17.945312 32.121094 17.8125 32.246094 17.667969 C 32.367188 17.527344 32.484375 17.378906 32.589844 17.222656 C 32.699219 17.070312 32.800781 16.910156 32.894531 16.746094 C 32.984375 16.582031 33.070312 16.414062 33.144531 16.242188 C 33.222656 16.070312 33.289062 15.894531 33.347656 15.714844 C 33.402344 15.539062 33.453125 15.355469 33.492188 15.171875 C 33.535156 14.988281 33.5625 14.804688 33.585938 14.617188 C 33.609375 14.429688 33.621094 14.242188 33.621094 14.054688 C 33.625 13.863281 33.617188 13.675781 33.601562 13.488281 C 33.585938 13.300781 33.5625 13.117188 33.527344 12.929688 C 33.492188 12.746094 33.449219 12.5625 33.394531 12.382812 C 33.34375 12.203125 33.28125 12.023438 33.210938 11.847656 C 33.140625 11.675781 33.058594 11.503906 32.972656 11.335938 C 32.886719 11.171875 32.789062 11.007812 32.683594 10.851562 C 32.582031 10.695312 32.46875 10.542969 32.351562 10.398438 C 32.234375 10.253906 32.105469 10.113281 31.972656 9.980469 C 31.839844 9.847656 31.703125 9.71875 31.554688 9.601562 C 31.410156 9.480469 31.261719 9.371094 31.101562 9.265625 C 30.945312 9.160156 30.785156 9.066406 30.617188 8.976562 C 30.453125 8.890625 30.28125 8.808594 30.109375 8.738281 C 29.933594 8.667969 29.757812 8.605469 29.578125 8.550781 C 29.394531 8.5 29.214844 8.457031 29.027344 8.421875 C 28.84375 8.386719 28.65625 8.359375 28.472656 8.34375 C 28.285156 8.328125 28.097656 8.320312 27.90625 8.324219 C 27.71875 8.324219 27.53125 8.335938 27.34375 8.359375 C 27.160156 8.378906 26.972656 8.410156 26.789062 8.449219 C 26.605469 8.488281 26.425781 8.539062 26.246094 8.597656 C 26.21875 8.398438 26.1875 8.203125 26.144531 8.011719 C 26.101562 7.816406 26.050781 7.625 25.992188 7.433594 C 25.933594 7.246094 25.867188 7.058594 25.792969 6.875 C 25.714844 6.691406 25.632812 6.511719 25.542969 6.335938 C 25.449219 6.160156 25.351562 5.988281 25.246094 5.820312 C 25.140625 5.652344 25.027344 5.492188 24.90625 5.332031 C 24.785156 5.175781 24.65625 5.023438 24.523438 4.878906 C 24.390625 4.730469 24.25 4.589844 24.105469 4.457031 C 23.957031 4.324219 23.808594 4.195312 23.648438 4.074219 C 23.492188 3.953125 23.328125 3.839844 23.164062 3.734375 C 22.996094 3.628906 22.824219 3.53125 22.648438 3.4375 C 22.472656 3.347656 22.292969 3.261719 22.109375 3.1875 C 21.925781 3.113281 21.738281 3.046875 21.550781 2.984375 C 21.363281 2.925781 21.171875 2.875 20.976562 2.832031 C 20.78125 2.792969 20.589844 2.757812 20.390625 2.730469 C 20.195312 2.707031 19.996094 2.691406 19.800781 2.683594 C 19.601562 2.675781 19.402344 2.675781 19.207031 2.683594 C 19.007812 2.695312 18.808594 2.714844 18.613281 2.738281 C 18.417969 2.765625 18.222656 2.800781 18.03125 2.847656 C 17.835938 2.890625 17.644531 2.941406 17.457031 3.003906 C 17.269531 3.066406 17.082031 3.132812 16.902344 3.210938 C 16.71875 3.289062 16.539062 3.371094 16.363281 3.464844 C 16.1875 3.558594 16.019531 3.660156 15.851562 3.765625 C 15.683594 3.875 15.523438 3.988281 15.367188 4.113281 C 15.210938 4.234375 15.0625 4.363281 14.917969 4.496094 C 14.769531 4.632812 14.632812 4.773438 14.5 4.921875 C 14.367188 5.070312 14.242188 5.222656 14.121094 5.382812 C 14.003906 5.539062 13.890625 5.703125 13.785156 5.871094 C 13.683594 6.039062 13.585938 6.214844 13.496094 6.390625 C 13.40625 6.566406 13.324219 6.746094 13.25 6.929688 C 13.175781 7.117188 13.113281 7.300781 13.054688 7.492188 C 12.996094 7.683594 12.949219 7.875 12.90625 8.066406 C 12.3125 7.863281 11.699219 7.757812 11.070312 7.757812 C 11.03125 7.757812 10.988281 7.757812 10.949219 7.757812 C 10.78125 7.761719 10.613281 7.773438 10.445312 7.792969 C 10.277344 7.8125 10.113281 7.839844 9.945312 7.871094 C 9.78125 7.90625 9.617188 7.945312 9.457031 7.996094 C 9.296875 8.042969 9.136719 8.097656 8.980469 8.160156 C 8.824219 8.222656 8.671875 8.292969 8.519531 8.371094 C 8.371094 8.445312 8.222656 8.527344 8.082031 8.617188 C 7.9375 8.707031 7.800781 8.800781 7.667969 8.90625 C 7.53125 9.007812 7.402344 9.113281 7.277344 9.226562 C 7.152344 9.339844 7.035156 9.460938 6.921875 9.582031 C 6.808594 9.707031 6.699219 9.835938 6.597656 9.96875 C 6.492188 10.105469 6.398438 10.242188 6.308594 10.382812 C 6.21875 10.527344 6.132812 10.671875 6.058594 10.824219 C 5.980469 10.972656 5.910156 11.125 5.847656 11.28125 C 5.785156 11.4375 5.726562 11.597656 5.679688 11.757812 C 5.628906 11.917969 5.585938 12.082031 5.554688 12.246094 C 5.519531 12.414062 5.492188 12.578125 5.472656 12.746094 C 5.453125 12.914062 5.441406 13.082031 5.433594 13.25 C 5.429688 13.417969 5.433594 13.585938 5.445312 13.753906 C 5.453125 13.921875 5.472656 14.089844 5.496094 14.257812 C 5.523438 14.425781 5.554688 14.589844 5.597656 14.753906 C 5.636719 14.917969 5.683594 15.078125 5.738281 15.238281 C 5.792969 15.398438 5.855469 15.554688 5.921875 15.707031 C 5.992188 15.859375 6.066406 16.011719 6.148438 16.160156 C 6.230469 16.304688 6.320312 16.449219 6.414062 16.589844 C 6.511719 16.726562 6.613281 16.863281 6.71875 16.992188 C 6.824219 17.121094 6.9375 17.246094 7.058594 17.367188 C 7.175781 17.488281 7.296875 17.601562 7.425781 17.710938 C 7.554688 17.820312 7.6875 17.921875 7.824219 18.019531 C 7.964844 18.117188 8.105469 18.207031 8.25 18.292969 C 8.394531 18.375 8.546875 18.453125 8.699219 18.527344 C 8.851562 18.597656 9.007812 18.660156 9.164062 18.71875 C 9.324219 18.773438 9.484375 18.824219 9.648438 18.867188 Z M 9.648438 18.867188 "/>
</g>
</svg>
