<?xml version="1.0" encoding="UTF-8"?>
<svg xmlns="http://www.w3.org/2000/svg" xmlns:xlink="http://www.w3.org/1999/xlink" width="40px" height="px" viewBox="0 0 40 40" version="1.1">
<defs>
<clipPath id="clip1">
  <path d="M 2.550781 2.550781 L 36.550781 2.550781 L 36.550781 36.550781 L 2.550781 36.550781 Z M 2.550781 2.550781 "/>
</clipPath>
</defs>
<g id="surface1">
<g clip-path="url(#clip1)" clip-rule="nonzero">
<path style=" stroke:none;fill-rule:nonzero;fill:rgb(0%,0%,0%);fill-opacity:1;" d="M 19.546875 35.421875 C 10.792969 35.421875 3.667969 28.300781 3.667969 19.546875 C 3.667969 10.792969 10.792969 3.667969 19.546875 3.667969 C 28.300781 3.667969 35.421875 10.792969 35.421875 19.546875 C 35.421875 28.300781 28.300781 35.421875 19.546875 35.421875 Z M 19.546875 2.546875 C 10.171875 2.546875 2.546875 10.171875 2.546875 19.546875 C 2.546875 28.917969 10.171875 36.546875 19.546875 36.546875 C 28.917969 36.546875 36.546875 28.917969 36.546875 19.546875 C 36.546875 10.171875 28.917969 2.546875 19.546875 2.546875 "/>
</g>
<path style=" stroke:none;fill-rule:nonzero;fill:rgb(0%,0%,0%);fill-opacity:1;" d="M 15.542969 20.34375 C 15.316406 20.421875 15.164062 20.636719 15.164062 20.875 L 15.164062 28.054688 C 15.167969 28.195312 15.121094 28.652344 14.894531 28.878906 C 14.832031 28.941406 14.71875 29.027344 14.472656 29.027344 C 13.796875 29.027344 13.753906 28.230469 13.753906 28.074219 L 13.753906 20.84375 C 13.753906 20.574219 13.558594 20.34375 13.296875 20.292969 C 13.203125 20.273438 11.042969 19.832031 10.851562 17.675781 C 10.636719 15.238281 11.015625 11.042969 11.054688 10.660156 C 11.09375 10.484375 11.199219 10.261719 11.273438 10.214844 C 11.339844 10.285156 11.421875 10.515625 11.453125 10.703125 L 11.453125 16.15625 C 11.433594 16.449219 11.539062 16.746094 11.761719 16.988281 C 12.050781 17.3125 12.496094 17.496094 12.976562 17.496094 C 13.984375 17.496094 14.351562 16.8125 14.351562 16.351562 L 14.351562 10.757812 C 14.390625 10.476562 14.515625 10.179688 14.601562 10.125 C 14.671875 10.214844 14.746094 10.515625 14.746094 10.753906 L 14.746094 16.402344 C 14.746094 16.484375 14.75 16.921875 15.085938 17.265625 C 15.246094 17.433594 15.546875 17.632812 16.039062 17.632812 C 16.542969 17.632812 16.929688 17.496094 17.199219 17.21875 C 17.511719 16.894531 17.519531 16.519531 17.515625 16.460938 L 17.515625 10.726562 C 17.515625 10.71875 17.515625 10.707031 17.515625 10.699219 C 17.507812 10.492188 17.558594 10.125 17.695312 9.980469 C 17.726562 9.945312 17.769531 9.917969 17.875 9.917969 C 17.96875 9.917969 18.117188 10.328125 18.128906 10.703125 C 18.128906 10.765625 18.203125 17.105469 18.203125 17.882812 C 18.203125 18.472656 17.480469 19.664062 15.542969 20.34375 Z M 17.875 8.792969 C 17.480469 8.792969 17.136719 8.9375 16.878906 9.207031 C 16.378906 9.734375 16.386719 10.578125 16.394531 10.738281 L 16.394531 16.476562 C 16.394531 16.476562 16.394531 16.4375 16.394531 16.4375 C 16.390625 16.441406 16.316406 16.511719 16.039062 16.511719 C 15.875 16.511719 15.871094 16.476562 15.871094 16.417969 L 15.871094 10.753906 C 15.871094 9.878906 15.480469 8.996094 14.609375 8.996094 C 13.65625 8.996094 13.296875 10.046875 13.234375 10.667969 C 13.230469 10.6875 13.230469 10.707031 13.230469 10.726562 L 13.230469 16.320312 C 13.214844 16.339844 13.136719 16.375 12.976562 16.375 C 12.730469 16.375 12.601562 16.261719 12.574219 16.210938 C 12.574219 16.199219 12.574219 16.1875 12.574219 16.175781 L 12.574219 10.667969 C 12.574219 10.648438 12.574219 10.625 12.570312 10.605469 C 12.484375 9.847656 12.054688 9.085938 11.285156 9.085938 C 10.433594 9.085938 10.042969 9.960938 9.945312 10.476562 C 9.941406 10.492188 9.941406 10.507812 9.9375 10.527344 C 9.921875 10.714844 9.5 15.125 9.734375 17.773438 C 9.921875 19.875 11.515625 20.910156 12.628906 21.277344 L 12.628906 28.074219 C 12.628906 28.910156 13.121094 30.152344 14.472656 30.152344 C 14.960938 30.152344 15.382812 29.984375 15.699219 29.664062 C 16.289062 29.058594 16.289062 28.136719 16.289062 28.046875 L 16.289062 21.261719 C 18.375 20.410156 19.328125 18.941406 19.328125 17.882812 C 19.328125 17.101562 19.253906 10.953125 19.253906 10.683594 C 19.230469 9.742188 18.796875 8.792969 17.875 8.792969 "/>
<path style=" stroke:none;fill-rule:nonzero;fill:rgb(0%,0%,0%);fill-opacity:1;" d="M 25.789062 20.039062 C 25.59375 20.128906 25.464844 20.328125 25.464844 20.546875 L 25.464844 28.421875 C 25.464844 28.4375 25.464844 28.457031 25.46875 28.472656 C 25.476562 28.566406 25.464844 28.871094 25.316406 29.03125 C 25.285156 29.066406 25.183594 29.175781 24.871094 29.175781 C 24.167969 29.175781 23.957031 28.664062 23.902344 28.484375 L 23.902344 20.546875 C 23.902344 20.328125 23.777344 20.128906 23.578125 20.039062 C 22.074219 19.339844 21.066406 17.394531 21.066406 15.195312 C 21.066406 12.375 22.691406 10.082031 24.683594 10.082031 C 26.683594 10.082031 28.304688 12.375 28.304688 15.195312 C 28.304688 17.398438 27.296875 19.34375 25.789062 20.039062 Z M 24.683594 8.957031 C 22.070312 8.957031 19.945312 11.757812 19.945312 15.195312 C 19.945312 17.671875 21.070312 19.902344 22.777344 20.886719 L 22.777344 28.554688 C 22.777344 28.59375 22.785156 28.632812 22.789062 28.667969 C 22.90625 29.234375 23.492188 30.296875 24.871094 30.296875 C 25.542969 30.296875 25.9375 30.019531 26.152344 29.78125 C 26.613281 29.269531 26.601562 28.574219 26.585938 28.398438 L 26.585938 20.890625 C 28.300781 19.90625 29.429688 17.671875 29.429688 15.195312 C 29.429688 11.757812 27.300781 8.957031 24.683594 8.957031 "/>
</g>
</svg>
